<svg width="106" height="19" viewBox="0 0 106 19" fill="none" xmlns="http://www.w3.org/2000/svg">
<path d="M0.177173 18H5.57717V8.92H6.07717L11.7972 18H18.0172V1.2H12.6172V10.28H12.1172L6.53717 1.2H0.177173V18ZM19.4194 18H24.9594V12.1H34.0994V8.1H24.9594V5.82H34.5194V1.2H19.4194V18ZM53.4394 1.2H35.8194V5.82H41.8594V18H47.3994V5.82H53.4394V1.2ZM54.7397 18H69.8797V13.56H60.2797V11.42H69.5197V7.78H60.2797V5.64H69.8797V1.2H54.7397V18ZM88.7465 18L85.7465 12.48C87.1665 11.48 88.1865 9.88 88.1865 7.62C88.1865 3.2 85.5665 1.2 80.9065 1.2H71.2865V18H76.8265V13.66H81.0265L83.3065 18H88.7465ZM76.8265 5.8H80.5265C81.9265 5.8 82.6465 6.48 82.6465 7.66C82.6465 8.84 81.9265 9.52 80.5265 9.52H76.8265V5.8ZM97.2397 18.56C103 18.58 105.84 16.76 105.84 13.1C105.84 8.5 101.26 8.4 97.9197 7.84L96.1397 7.54C94.8597 7.34 94.5597 6.76 94.5597 6.28C94.5597 5.52 95.3197 4.96 97.1597 4.96C99.2797 4.96 100.22 5.66 100.42 6.78H105.36C105.46 1.98 102.1 0.639999 97.2797 0.639999C91.9397 0.639999 89.2397 2.68 89.2397 6C89.2397 10.3 93.0597 10.68 96.2397 11.2L98.3997 11.54C100.04 11.78 100.34 12.34 100.34 12.88C100.34 13.66 99.3597 14.26 97.2397 14.24C94.8397 14.22 93.8797 13.52 93.8197 12.38H88.8397C88.6997 16.74 91.4397 18.54 97.2397 18.56Z" fill="#3D00B7"/>
</svg>
