<svg width="24" height="24" viewBox="0 0 24 24" fill="none" xmlns="http://www.w3.org/2000/svg">
<path d="M11.4896 21.75C5.86308 21.75 1.28217 17.15 1.28217 11.5C1.28217 5.85 5.86308 1.25 11.4896 1.25C17.1162 1.25 21.6971 5.85 21.6971 11.5C21.6971 17.15 17.1162 21.75 11.4896 21.75ZM11.4896 2.75C6.67968 2.75 2.77594 6.68 2.77594 11.5C2.77594 16.32 6.67968 20.25 11.4896 20.25C16.2996 20.25 20.2033 16.32 20.2033 11.5C20.2033 6.68 16.2996 2.75 11.4896 2.75Z" fill="#757575"/>
<path d="M21.9465 22.7499C21.7572 22.7499 21.568 22.6799 21.4187 22.5299L19.427 20.5299C19.1382 20.2399 19.1382 19.7599 19.427 19.4699C19.7158 19.1799 20.1938 19.1799 20.4826 19.4699L22.4743 21.4699C22.7631 21.7599 22.7631 22.2399 22.4743 22.5299C22.3249 22.6799 22.1357 22.7499 21.9465 22.7499Z" fill="#757575"/>
</svg>
